<svg width="262" height="115" viewBox="0 0 262 115" fill="none" xmlns="http://www.w3.org/2000/svg">
<path d="M13.632 109.84C13.76 106.256 13.856 102.704 13.92 99.184C13.984 95.728 14.016 92.048 14.016 88.144C14.016 86.48 13.984 84.816 13.92 83.152C13.856 81.552 13.76 79.984 13.632 78.448V89.008C13.632 92.528 13.568 96.016 13.44 99.472C13.376 102.992 13.152 106.448 12.768 109.84C12.448 109.264 12.16 108.656 11.904 108.016C11.648 107.44 11.456 106.8 11.328 106.096C11.456 104.368 11.52 102.768 11.52 101.296C11.584 99.888 11.616 98.32 11.616 96.592L12.768 96.016C12.576 94.672 12.448 93.296 12.384 91.888C12.32 90.544 12.288 89.2 12.288 87.856C12.288 86.384 12.288 84.944 12.288 83.536C12.352 82.192 12.384 80.784 12.384 79.312C12.384 77.52 12.32 75.76 12.192 74.032C12.128 72.24 11.936 70.448 11.616 68.656H11.328C11.456 71.344 11.552 74 11.616 76.624C11.744 79.248 11.808 81.872 11.808 84.496C11.808 85.648 11.776 86.8 11.712 87.952L11.616 90.448C11.488 84.304 11.264 78.288 10.944 72.4C10.688 66.128 10.24 59.696 9.6 53.104L9.984 45.136C9.28 45.072 8.544 45.04 7.776 45.04H5.568L5.28 42.832C5.28 42.512 5.504 42.224 5.952 41.968C6.4 41.712 7.296 41.584 8.64 41.584H9.6V40.432C7.488 40.176 5.824 39.728 4.608 39.088C3.456 38.448 2.88 37.776 2.88 37.072C2.88 36.432 3.456 35.888 4.608 35.44C5.76 34.928 7.232 34.544 9.024 34.288C10.88 33.968 12.896 33.744 15.072 33.616C17.248 33.488 19.36 33.424 21.408 33.424C23.648 33.424 26.048 33.488 28.608 33.616C31.232 33.744 33.856 34.064 36.48 34.576C39.104 35.088 41.632 35.888 44.064 36.976C46.56 38 48.8 39.472 50.784 41.392C52.768 43.248 54.4 45.616 55.68 48.496C57.024 51.312 57.888 54.768 58.272 58.864C58.272 62.32 57.504 65.168 55.968 67.408C54.496 69.584 52.704 71.344 50.592 72.688C48.48 74.032 46.272 74.992 43.968 75.568C41.728 76.144 39.872 76.528 38.4 76.72C36.928 77.04 35.232 77.424 33.312 77.872C31.392 78.256 29.76 78.448 28.416 78.448C26.944 78.448 26.08 78.288 25.824 77.968C25.568 77.648 25.44 77.232 25.44 76.72C28.32 76.592 31.2 76.368 34.08 76.048C36.96 75.664 39.84 75.024 42.72 74.128C39.84 74.832 36.96 75.376 34.08 75.76C31.2 76.08 28.32 76.304 25.44 76.432C25.44 76.048 25.408 75.664 25.344 75.28C25.28 74.832 25.088 74.608 24.768 74.608C24.128 74.608 23.616 75.632 23.232 77.68C22.912 79.728 22.656 82.16 22.464 84.976C22.336 87.856 22.24 90.8 22.176 93.808C22.176 96.816 22.176 99.312 22.176 101.296C22.176 102.192 22.208 103.12 22.272 104.08C22.4 105.104 22.464 105.968 22.464 106.672C22.464 107.312 22.368 107.856 22.176 108.304C21.984 108.752 21.44 108.976 20.544 108.976V96.88C20.416 98.928 20.32 100.944 20.256 102.928C20.256 104.912 20.256 106.928 20.256 108.976H18.528V109.744C18.528 110.32 18.624 110.736 18.816 110.992C18.112 112.208 17.312 112.816 16.416 112.816C15.712 112.816 15.168 112.624 14.784 112.24C14.464 111.856 13.984 111.344 13.344 110.704L13.632 109.84ZM22.944 69.808H24.288C26.528 69.808 29.088 69.68 31.968 69.424C34.912 69.168 37.664 68.688 40.224 67.984C42.784 67.28 44.928 66.288 46.656 65.008C48.448 63.728 49.344 62.064 49.344 60.016V59.248C49.344 58.608 49.28 57.904 49.152 57.136C49.088 56.368 48.832 55.632 48.384 54.928C48.448 55.248 48.608 55.888 48.864 56.848C49.12 57.808 49.248 58.608 49.248 59.248C49.248 61.232 48.544 62.864 47.136 64.144C45.792 65.36 44.064 66.352 41.952 67.12C39.904 67.824 37.632 68.336 35.136 68.656C32.704 68.912 30.368 69.04 28.128 69.04H26.208C25.568 69.04 24.928 69.008 24.288 68.944C25.184 68.24 26.336 67.76 27.744 67.504C29.216 67.184 30.752 66.928 32.352 66.736C33.952 66.544 35.52 66.352 37.056 66.16C38.592 65.968 39.904 65.648 40.992 65.2L41.568 66.352C43.808 65.264 45.376 64.208 46.272 63.184C47.232 62.096 47.712 60.624 47.712 58.768C47.712 55.824 46.88 53.232 45.216 50.992C43.616 48.752 41.44 47.248 38.688 46.48L38.4 47.056C40.768 47.952 42.816 49.424 44.544 51.472C46.272 53.52 47.136 55.984 47.136 58.864C47.136 60.4 46.784 61.616 46.08 62.512C45.44 63.28 44.416 63.984 43.008 64.624C44.16 64.112 45.024 63.472 45.6 62.704C46.304 61.808 46.784 60.816 47.04 59.728C47.04 57.04 46.4 54.768 45.12 52.912C43.84 51.056 42.048 49.584 39.744 48.496C37.44 47.344 34.656 46.544 31.392 46.096C28.192 45.584 24.64 45.328 20.736 45.328C21.248 48.08 21.536 51.088 21.6 54.352C21.728 57.552 21.952 60.688 22.272 63.76L22.944 69.808ZM13.248 55.12C13.376 54.992 13.504 54.448 13.632 53.488C13.76 52.528 13.856 51.504 13.92 50.416C14.048 49.264 14.144 48.208 14.208 47.248C14.336 46.224 14.464 45.616 14.592 45.424L13.344 45.328L13.248 55.12ZM42.528 64.816L43.008 64.624L42.528 64.816ZM84.5018 83.056C83.8618 83.184 83.1578 83.248 82.3898 83.248H79.6058C77.9418 83.248 76.7578 83.44 76.0538 83.824C75.4138 84.208 75.0298 84.4 74.9018 84.4L74.5178 82.672V80.944L74.0378 71.92C73.9098 70.192 73.5578 68.336 72.9818 66.352C72.4058 64.368 71.9578 62.352 71.6378 60.304C71.4458 58.96 71.2858 57.68 71.1578 56.464L70.7738 52.72C70.6458 51.44 70.4858 50.128 70.2938 48.784C70.1658 47.44 69.9418 46 69.6218 44.464C69.6218 44.08 69.6218 43.696 69.6218 43.312C69.6858 42.928 69.7178 42.544 69.7178 42.16C69.7178 40.176 69.5578 38.224 69.2378 36.304C68.9178 34.384 68.4698 32.496 67.8938 30.64C68.3418 30.448 68.7578 30.288 69.1418 30.16C69.5258 29.968 69.8778 29.872 70.1978 29.872C70.5178 29.872 70.8698 30.256 71.2538 31.024C71.6378 31.728 72.0538 33.232 72.5018 35.536C72.6298 35.536 72.8218 35.504 73.0778 35.44C73.3338 35.312 73.5258 35.248 73.6538 35.248C73.5898 34.16 73.4298 33.008 73.1738 31.792C72.9178 30.512 72.6618 29.296 72.4058 28.144C72.1498 26.992 71.8938 25.968 71.6378 25.072C71.4458 24.112 71.3498 23.344 71.3498 22.768C71.3498 22.64 71.3498 22.48 71.3498 22.288C71.4138 22.096 71.5738 22 71.8298 22C72.1498 22 72.5658 22.352 73.0778 23.056C73.5898 23.76 74.1338 24.656 74.7098 25.744C75.2858 26.832 75.8298 28.016 76.3418 29.296C76.9178 30.512 77.4298 31.664 77.8778 32.752C79.6058 29.488 81.5578 27.024 83.7338 25.36C85.9738 23.632 88.8858 22.768 92.4698 22.768C95.0938 22.768 97.2378 23.088 98.9018 23.728C100.566 24.304 101.846 24.976 102.742 25.744C103.702 26.448 104.342 27.12 104.662 27.76L105.238 28.72C105.238 29.104 105.046 29.36 104.662 29.488C102.998 27.888 101.11 26.672 98.9978 25.84C96.8858 25.008 94.7098 24.592 92.4698 24.592C90.2938 24.592 88.6618 24.88 87.5738 25.456C86.5498 25.968 85.4618 26.608 84.3098 27.376C85.5258 26.608 86.6458 26 87.6698 25.552C88.7578 25.104 90.3258 24.88 92.3738 24.88C94.6138 24.88 96.7578 25.328 98.8058 26.224C100.854 27.056 102.614 28.144 104.086 29.488C103.766 29.616 103.478 29.776 103.222 29.968C103.03 30.096 102.934 30.32 102.934 30.64C103.254 30.64 103.606 30.864 103.99 31.312C104.374 31.696 104.726 32.176 105.046 32.752C105.366 33.328 105.622 33.936 105.814 34.576C106.07 35.152 106.198 35.632 106.198 36.016C106.198 37.104 105.782 37.648 104.95 37.648C104.31 37.648 103.542 37.424 102.646 36.976C102.454 36.912 102.038 36.56 101.398 35.92C100.822 35.28 100.086 34.64 99.1898 34C98.2938 33.296 97.2698 32.656 96.1178 32.08C94.9658 31.504 93.6858 31.216 92.2778 31.216C91.1258 31.216 90.1018 31.472 89.2058 31.984C88.3738 32.432 87.6058 33.072 86.9018 33.904C86.1978 34.672 85.5578 35.568 84.9818 36.592L83.7338 38.896C84.6938 37.168 85.7498 35.6 86.9018 34.192C88.1818 32.528 89.7818 31.696 91.7018 31.696C93.3658 31.696 94.9018 32.08 96.3098 32.848C97.7178 33.552 98.8698 34.448 99.7658 35.536C98.6778 35.088 97.3978 34.64 95.9258 34.192C94.4538 33.744 93.0458 33.52 91.7018 33.52C90.9978 33.52 90.3898 33.68 89.8778 34C89.3658 34.32 88.9178 34.736 88.5338 35.248C88.2138 35.696 87.8938 36.208 87.5738 36.784C87.3178 37.36 87.0298 37.904 86.7098 38.416L85.4618 38.608C84.3738 40.464 83.4778 42.64 82.7738 45.136C82.1338 47.568 81.8138 50.128 81.8138 52.816C81.8138 54.416 81.8778 55.856 82.0058 57.136C82.1978 58.416 82.4538 59.728 82.7738 61.072L83.9258 64.048L83.7338 61.264C83.6058 59.088 83.4778 57.168 83.3498 55.504C83.2218 53.776 83.1578 51.888 83.1578 49.84C83.2858 47.984 83.5418 46.224 83.9258 44.56C84.2458 43.152 84.7258 41.84 85.3658 40.624C84.5978 42.16 84.0858 43.92 83.8298 45.904C83.5098 48.08 83.3498 50.384 83.3498 52.816C83.3498 54.736 83.4458 56.56 83.6378 58.288C83.8298 60.016 84.0538 61.744 84.3098 63.472C84.6298 65.2 84.9498 66.992 85.2698 68.848C85.5898 70.64 85.8458 72.624 86.0378 74.8L86.3258 76.624L86.9018 82.096L84.5018 83.056ZM85.6538 40.144L85.3658 40.624L85.6538 40.144ZM130.715 24.208C130.779 24.528 131.131 24.688 131.771 24.688H131.963C132.347 24.688 132.603 24.72 132.731 24.784C136.059 25.808 139.355 27.312 142.619 29.296C145.947 31.216 148.923 33.552 151.547 36.304C154.235 38.992 156.379 42.064 157.979 45.52C159.643 48.976 160.475 52.688 160.475 56.656C160.475 60.112 159.803 63.44 158.458 66.64C157.115 69.84 155.259 72.624 152.891 74.992C155.323 72.88 157.243 70.256 158.651 67.12C160.123 63.92 160.859 60.496 160.859 56.848C160.859 52.752 159.995 48.944 158.267 45.424C156.539 41.84 154.331 38.64 151.643 35.824C148.955 33.008 145.947 30.608 142.619 28.624C139.355 26.576 136.155 25.008 133.019 23.92C135.451 23.92 137.915 24.464 140.411 25.552C142.971 26.64 145.403 28.08 147.707 29.872C150.011 31.6 152.123 33.616 154.042 35.92C156.027 38.16 157.691 40.464 159.035 42.832L158.363 43.792C159.643 45.712 160.603 47.792 161.243 50.032C161.947 52.272 162.299 54.576 162.299 56.944C162.299 61.488 161.307 65.488 159.323 68.944C157.403 72.336 154.939 75.184 151.931 77.488C148.987 79.728 145.723 81.424 142.139 82.576C138.619 83.728 135.291 84.304 132.155 84.304C130.363 84.304 128.539 84.112 126.683 83.728C124.891 83.344 123.067 82.704 121.211 81.808V82.384C123.003 83.408 124.827 84.112 126.683 84.496C128.603 84.88 130.491 85.072 132.347 85.072C136.955 85.072 141.467 84.048 145.883 82C150.363 80.016 154.139 77.2 157.211 73.552C154.267 77.328 150.587 80.272 146.171 82.384C141.819 84.496 137.275 85.552 132.539 85.552C127.675 85.552 123.739 84.592 120.731 82.672C117.723 80.816 115.355 78.512 113.627 75.76C111.963 73.008 110.843 70.096 110.267 67.024C109.691 63.952 109.403 61.2 109.403 58.768C109.403 55.504 109.819 52.304 110.651 49.168C111.547 46.032 112.891 43.152 114.683 40.528C116.475 37.904 118.779 35.664 121.595 33.808C124.411 31.888 127.803 30.544 131.771 29.776L128.987 29.104C127.643 28.784 126.683 28.4 126.107 27.952C125.531 27.504 125.243 27.12 125.243 26.8C125.243 26.288 125.787 25.744 126.875 25.168C128.027 24.528 129.307 24.208 130.715 24.208ZM126.395 36.304C128.123 35.664 129.787 35.344 131.387 35.344C132.987 35.344 134.203 35.6 135.035 36.112C135.931 36.56 136.379 37.04 136.379 37.552C136.379 37.872 135.995 38.224 135.227 38.608C134.523 38.992 133.595 39.536 132.443 40.24C131.355 40.88 130.139 41.712 128.795 42.736C127.515 43.76 126.299 45.072 125.147 46.672C124.059 48.208 123.131 50.096 122.363 52.336C121.659 54.576 121.307 57.2 121.307 60.208C121.307 64.624 122.299 67.952 124.283 70.192C126.267 72.432 129.019 73.552 132.539 73.552C134.779 73.552 137.051 73.168 139.355 72.4C141.723 71.632 143.835 70.544 145.691 69.136C147.611 67.728 149.147 66 150.299 63.952C151.515 61.904 152.123 59.6 152.123 57.04C152.123 55.12 151.771 53.2 151.067 51.28C150.427 49.36 149.499 47.536 148.283 45.808C147.131 44.016 145.723 42.352 144.059 40.816C142.459 39.28 140.699 37.968 138.779 36.88C136.923 35.856 135.387 35.088 134.171 34.576C133.019 34 132.187 33.456 131.675 32.944C131.163 33.2 130.427 33.52 129.467 33.904C128.571 34.224 127.355 34.736 125.819 35.44L126.395 36.304ZM132.827 31.792C135.771 32.752 138.587 34.192 141.275 36.112C143.579 37.84 145.691 39.728 147.611 41.776C145.755 39.6 143.739 37.648 141.563 35.92C139.067 33.872 136.283 32.272 133.211 31.12L132.827 31.792ZM151.451 64.528C150.491 66.576 149.147 68.4 147.419 70C148.571 69.232 149.531 68.304 150.299 67.216C151.131 66.128 151.803 65.04 152.315 63.952C152.827 62.864 153.211 61.872 153.467 60.976C153.659 60.144 153.819 59.472 153.947 58.96C153.243 60.624 152.411 62.48 151.451 64.528ZM157.883 72.784C157.819 72.912 157.723 73.04 157.595 73.168C157.531 73.232 157.467 73.264 157.403 73.264C157.339 73.264 157.499 72.944 157.883 72.304C158.267 71.6 158.715 70.8 159.227 69.904C159.803 68.944 160.347 67.952 160.859 66.928C161.307 66.16 161.627 65.488 161.819 64.912C160.923 67.664 159.611 70.288 157.883 72.784ZM163.259 57.232C163.259 58.256 163.195 59.28 163.067 60.304C162.939 61.264 162.715 62.16 162.395 62.992C162.843 61.392 163.067 59.6 163.067 57.616C163.067 56.144 162.939 54.704 162.683 53.296C162.491 52.08 162.235 50.896 161.915 49.744C162.235 50.896 162.523 52.048 162.779 53.2C163.099 54.48 163.259 55.824 163.259 57.232ZM132.827 30.256L131.963 29.872C131.899 30 131.803 30.128 131.675 30.256C131.547 30.384 131.483 30.512 131.483 30.64C131.483 30.768 131.547 30.96 131.675 31.216C131.867 31.408 132.027 31.568 132.155 31.696L132.827 30.256ZM148.187 42.448C147.995 42.192 147.803 41.968 147.611 41.776C147.803 42.032 147.995 42.256 148.187 42.448ZM161.819 64.912C161.883 64.784 161.915 64.656 161.915 64.528C161.915 64.656 161.883 64.784 161.819 64.912ZM162.01 64.336C161.947 64.4 161.915 64.464 161.915 64.528C161.915 64.464 161.947 64.4 162.01 64.336ZM192.215 24.208C192.279 24.528 192.631 24.688 193.271 24.688H193.463C193.847 24.688 194.103 24.72 194.231 24.784C197.559 25.808 200.855 27.312 204.119 29.296C207.447 31.216 210.423 33.552 213.047 36.304C215.735 38.992 217.879 42.064 219.479 45.52C221.143 48.976 221.975 52.688 221.975 56.656C221.975 60.112 221.303 63.44 219.958 66.64C218.615 69.84 216.759 72.624 214.391 74.992C216.823 72.88 218.743 70.256 220.151 67.12C221.623 63.92 222.359 60.496 222.359 56.848C222.359 52.752 221.495 48.944 219.767 45.424C218.039 41.84 215.831 38.64 213.143 35.824C210.455 33.008 207.447 30.608 204.119 28.624C200.855 26.576 197.655 25.008 194.519 23.92C196.951 23.92 199.415 24.464 201.911 25.552C204.471 26.64 206.903 28.08 209.207 29.872C211.511 31.6 213.623 33.616 215.542 35.92C217.527 38.16 219.191 40.464 220.535 42.832L219.863 43.792C221.143 45.712 222.103 47.792 222.743 50.032C223.447 52.272 223.799 54.576 223.799 56.944C223.799 61.488 222.807 65.488 220.823 68.944C218.903 72.336 216.439 75.184 213.431 77.488C210.487 79.728 207.223 81.424 203.639 82.576C200.119 83.728 196.791 84.304 193.655 84.304C191.863 84.304 190.039 84.112 188.183 83.728C186.391 83.344 184.567 82.704 182.711 81.808V82.384C184.503 83.408 186.327 84.112 188.183 84.496C190.103 84.88 191.991 85.072 193.847 85.072C198.455 85.072 202.967 84.048 207.383 82C211.863 80.016 215.639 77.2 218.711 73.552C215.767 77.328 212.087 80.272 207.671 82.384C203.319 84.496 198.775 85.552 194.039 85.552C189.175 85.552 185.239 84.592 182.231 82.672C179.223 80.816 176.855 78.512 175.127 75.76C173.463 73.008 172.343 70.096 171.767 67.024C171.191 63.952 170.903 61.2 170.903 58.768C170.903 55.504 171.319 52.304 172.151 49.168C173.047 46.032 174.391 43.152 176.183 40.528C177.975 37.904 180.279 35.664 183.095 33.808C185.911 31.888 189.303 30.544 193.271 29.776L190.487 29.104C189.143 28.784 188.183 28.4 187.607 27.952C187.031 27.504 186.743 27.12 186.743 26.8C186.743 26.288 187.287 25.744 188.375 25.168C189.527 24.528 190.807 24.208 192.215 24.208ZM187.895 36.304C189.623 35.664 191.287 35.344 192.887 35.344C194.487 35.344 195.703 35.6 196.535 36.112C197.431 36.56 197.879 37.04 197.879 37.552C197.879 37.872 197.495 38.224 196.727 38.608C196.023 38.992 195.095 39.536 193.943 40.24C192.855 40.88 191.639 41.712 190.295 42.736C189.015 43.76 187.799 45.072 186.647 46.672C185.559 48.208 184.631 50.096 183.863 52.336C183.159 54.576 182.807 57.2 182.807 60.208C182.807 64.624 183.799 67.952 185.783 70.192C187.767 72.432 190.519 73.552 194.039 73.552C196.279 73.552 198.551 73.168 200.855 72.4C203.223 71.632 205.335 70.544 207.191 69.136C209.111 67.728 210.647 66 211.799 63.952C213.015 61.904 213.623 59.6 213.623 57.04C213.623 55.12 213.271 53.2 212.567 51.28C211.927 49.36 210.999 47.536 209.783 45.808C208.631 44.016 207.223 42.352 205.559 40.816C203.959 39.28 202.199 37.968 200.279 36.88C198.423 35.856 196.887 35.088 195.671 34.576C194.519 34 193.687 33.456 193.175 32.944C192.663 33.2 191.927 33.52 190.967 33.904C190.071 34.224 188.855 34.736 187.319 35.44L187.895 36.304ZM194.327 31.792C197.271 32.752 200.087 34.192 202.775 36.112C205.079 37.84 207.191 39.728 209.111 41.776C207.255 39.6 205.239 37.648 203.063 35.92C200.567 33.872 197.783 32.272 194.711 31.12L194.327 31.792ZM212.951 64.528C211.991 66.576 210.647 68.4 208.919 70C210.071 69.232 211.031 68.304 211.799 67.216C212.631 66.128 213.303 65.04 213.815 63.952C214.327 62.864 214.711 61.872 214.967 60.976C215.159 60.144 215.319 59.472 215.447 58.96C214.743 60.624 213.911 62.48 212.951 64.528ZM219.383 72.784C219.319 72.912 219.223 73.04 219.095 73.168C219.031 73.232 218.967 73.264 218.903 73.264C218.839 73.264 218.999 72.944 219.383 72.304C219.767 71.6 220.215 70.8 220.727 69.904C221.303 68.944 221.847 67.952 222.359 66.928C222.807 66.16 223.127 65.488 223.319 64.912C222.423 67.664 221.111 70.288 219.383 72.784ZM224.759 57.232C224.759 58.256 224.695 59.28 224.567 60.304C224.439 61.264 224.215 62.16 223.895 62.992C224.343 61.392 224.567 59.6 224.567 57.616C224.567 56.144 224.439 54.704 224.183 53.296C223.991 52.08 223.735 50.896 223.415 49.744C223.735 50.896 224.023 52.048 224.279 53.2C224.599 54.48 224.759 55.824 224.759 57.232ZM194.327 30.256L193.463 29.872C193.399 30 193.303 30.128 193.175 30.256C193.047 30.384 192.983 30.512 192.983 30.64C192.983 30.768 193.047 30.96 193.175 31.216C193.367 31.408 193.527 31.568 193.655 31.696L194.327 30.256ZM209.687 42.448C209.495 42.192 209.303 41.968 209.111 41.776C209.303 42.032 209.495 42.256 209.687 42.448ZM223.319 64.912C223.383 64.784 223.415 64.656 223.415 64.528C223.415 64.656 223.383 64.784 223.319 64.912ZM223.51 64.336C223.447 64.4 223.415 64.464 223.415 64.528C223.415 64.464 223.447 64.4 223.51 64.336ZM258.803 73.84C258.419 73.84 258.035 74.032 257.651 74.416C256.307 74.928 254.899 75.376 253.427 75.76C252.019 76.08 250.547 76.24 249.011 76.24C244.659 76.24 241.395 74.992 239.219 72.496C237.043 69.936 235.955 66.256 235.955 61.456C235.955 59.152 236.051 56.848 236.243 54.544C236.435 52.304 236.563 50.224 236.627 48.304C236.435 50.288 236.211 52.272 235.955 54.256C235.635 56.368 235.475 58.576 235.475 60.88C235.475 62.032 235.571 63.504 235.763 65.296C236.019 67.088 236.595 68.848 237.491 70.576C238.387 72.24 239.763 73.712 241.619 74.992C243.475 76.208 246.035 76.816 249.299 76.816C250.835 76.816 252.307 76.656 253.715 76.336C255.187 75.952 256.595 75.504 257.939 74.992C257.043 76.08 255.827 76.944 254.291 77.584C252.819 78.224 251.059 78.544 249.011 78.544C246.387 78.544 243.827 78 241.331 76.912C238.899 75.824 237.043 74 235.763 71.44L236.339 70.384C235.187 68.336 234.547 66.512 234.419 64.912C234.291 63.248 234.163 61.616 234.035 60.016L235.667 43.216C235.987 40.336 236.211 37.456 236.339 34.576L236.051 34.384C235.539 37.392 235.123 40.272 234.803 43.024C234.483 45.712 234.227 48.368 234.035 50.992V48.496C234.419 45.552 234.771 42.672 235.091 39.856C235.411 36.976 235.827 34.064 236.339 31.12C236.851 28.176 237.491 25.104 238.259 21.904C239.091 18.704 240.179 15.28 241.523 11.632C243.315 9.2 244.371 6.8 244.691 4.432C244.883 4.432 245.075 4.464 245.267 4.528C245.459 4.592 245.843 4.62399 246.419 4.62399C246.803 4.62399 247.123 4.72 247.379 4.912C247.699 5.04 247.859 5.35999 247.859 5.872C247.859 6.448 247.667 7.312 247.283 8.464C247.411 8.464 247.603 8.528 247.859 8.65599C248.115 8.72 248.307 8.752 248.435 8.752C249.331 7.216 250.131 5.904 250.835 4.816C251.603 3.728 252.339 3.184 253.043 3.184C253.491 3.184 253.875 3.472 254.195 4.048C254.579 4.56 254.771 5.424 254.771 6.64C254.643 8.944 254.259 11.12 253.619 13.168C253.043 15.216 252.403 17.2 251.699 19.12C250.995 21.04 250.291 22.992 249.587 24.976C248.947 26.96 248.467 29.04 248.147 31.216C247.763 33.712 247.379 36.272 246.995 38.896C246.611 41.456 246.259 44.016 245.939 46.576C245.619 49.136 245.299 51.6 244.979 53.968C244.723 56.336 244.531 58.544 244.403 60.592C244.403 62.448 244.691 64.368 245.267 66.352C245.587 66.864 245.875 67.248 246.131 67.504C246.387 67.696 246.835 67.792 247.475 67.792C248.243 67.792 249.075 67.696 249.971 67.504C250.931 67.312 251.763 67.216 252.467 67.216C252.915 67.216 253.235 67.28 253.427 67.408C253.619 67.536 253.779 67.76 253.906 68.08C253.01 68.592 252.051 68.976 251.027 69.232C250.003 69.488 249.043 69.616 248.147 69.616H246.803C246.547 69.616 246.323 69.616 246.131 69.616C246.835 69.744 247.731 69.808 248.819 69.808C250.483 69.808 252.179 69.424 253.906 68.656C253.906 69.232 254.099 69.712 254.483 70.096C254.675 70.032 255.123 69.808 255.827 69.424C256.531 69.04 257.139 68.848 257.651 68.848C259.187 68.848 259.955 69.488 259.955 70.768C259.955 70.96 259.891 71.248 259.763 71.632C259.635 72.016 259.315 72.752 258.803 73.84ZM233.363 60.976C233.363 60.528 233.363 59.952 233.363 59.248C233.427 58.544 233.491 57.84 233.555 57.136L233.747 54.928C233.811 54.16 233.875 53.488 233.939 52.912C233.875 53.872 233.811 55.088 233.747 56.56C233.747 57.968 233.747 59.024 233.747 59.728V63.568C233.747 64.08 233.747 64.624 233.747 65.2C233.811 65.776 233.875 66.32 233.939 66.832C233.683 65.808 233.523 64.816 233.459 63.856C233.395 62.832 233.363 61.872 233.363 60.976ZM242.771 60.592C242.771 59.12 242.867 57.68 243.059 56.272C243.251 54.864 243.411 53.424 243.539 51.952C243.219 53.424 242.963 54.864 242.771 56.272C242.643 57.68 242.515 59.12 242.387 60.592V61.936C242.387 62.384 242.419 62.864 242.483 63.376V62.704C242.483 62.384 242.515 62.032 242.579 61.648C242.643 61.264 242.707 60.912 242.771 60.592ZM233.939 52.816C233.939 52.688 233.939 52.592 233.939 52.528C234.003 52.464 234.035 52.4 234.035 52.336C234.035 52.592 234.003 52.752 233.939 52.816Z" fill="black"/>
</svg>
